<svg xmlns="http://www.w3.org/2000/svg" xmlns:xlink="http://www.w3.org/1999/xlink" viewBox="0 0 50 66" fill="#fff" fill-rule="evenodd" stroke="#000" stroke-linecap="round" stroke-linejoin="round" width="300" height="300" font-family="Roboto" font-size="14px" text-anchor="middle"><defs><style type="text/css"></style></defs><use xlink:href="#A" x=".5" y=".5"></use><symbol id="A" overflow="visible"><path d="M8.557 63.622c-3.308 1.2-6.956-.516-8.165-3.817a6.41 6.41 0 0 1 3.764-8.2l35.35-12.96c3.3-1.215 6.984.487 8.2 3.802a6.39 6.39 0 0 1-3.802 8.203zm0-19.132C5.25 45.68 1.6 43.974.392 40.673a6.41 6.41 0 0 1 3.764-8.2l35.35-12.958c3.3-1.216 6.984.487 8.2 3.802a6.39 6.39 0 0 1-3.802 8.201zm0-19.132C5.26 26.504 1.655 24.796.453 21.52s.447-6.9 3.703-8.166L39.505.393c3.3-1.216 6.984.487 8.2 3.802a6.39 6.39 0 0 1-3.802 8.201z" stroke="none" fill="#000" fill-rule="nonzero"></path></symbol></svg>