<svg xmlns="http://www.w3.org/2000/svg" xmlns:xlink="http://www.w3.org/1999/xlink" viewBox="0 0 67.78 67.78" fill="#fff" fill-rule="evenodd" stroke="#000" stroke-linecap="round" stroke-linejoin="round" width="300" height="300" font-family="Roboto" font-size="14px" text-anchor="middle"><defs><style type="text/css"></style></defs><use xlink:href="#A" x="1.89" y="1.89"></use><symbol id="A" overflow="visible"><path d="M37.62.015a4.12 4.12 0 0 0-1.285.227c.762.5 1.3 1.265 1.538 2.147.015.113.05.197.064.314s.038.197.038.302c.068 1.455-.378 1.637-.695 2.495-.48 1.108-.348 2.298.227 3.25.053.127.118.25.197.363-.627-4.18 2.86-4.81 3.504-6.115.05-1.14-.892-1.9-1.637-2.43C38.986.198 38.3.002 37.62 0zm5.29.945c-.068.378-.015.28-.038.48l-.038.43-.113.397-.132.397-.18.378-.132.196-.098.15-.25.33c-.098.098-.18.216-.302.302s-.197.197-.314.28c-.348.265-.745.46-1.108.71-.113.083-.227.15-.33.25-.112.08-.217.168-.314.265-.113.098-.197.196-.302.314-.094.1-.178.21-.25.33l-.227.348-.18.378-.132.378-.113.378c-.015.068-.015.15-.038.216s-.015.132-.038.196l-.015.378a2.08 2.08 0 0 0 .015.302 1.85 1.85 0 0 0 .049.416l.083.397.132.397.113.227-3.802-1.512-1.916-.49-1.043-.25-3.01-.446c-.038 0-.05-.015-.083-.015l-2.96-.15-2.166.083-3.024.363-.745.132-1.49.33-.745.197-.7.314-.544.25c-.038.015-.068.015-.083.038l-.46.227c-.05.015-.083.038-.113.05l-.514.264c-.113.05-.227.113-.33.166-.05.038-.113.064-.15.083l-.472.363a4.14 4.14 0 0 0-.397.25l-.33.227-.363.265-.28.227c-.038.015-.068.05-.098.068l-.25.216c-.015.038-.05.05-.068.068l-.302.28-.33.314-.28.302c-.038.038-.083.068-.113.098l-.28.3c-.015.038-.05.05-.068.083l-.378.397-.892.858c-.293.26-.603.503-.926.726l-1 .627a9.08 9.08 0 0 1-1.043.491l-1.073.397c-.695.15-1.406.43-2.018.48-.132 0-.28.038-.378.05l-.378.098-.397.15c-.135.054-.268.114-.397.18-.113.083-.25.15-.363.227-.117.084-.227.177-.33.28l-.33.302-.28.33-.25.378c-.087.12-.163.25-.23.382l-.18.43-.15.43-.083.397c-.05.196-.05.397-.068.49s0 .22 0 .34a.95.95 0 0 0 .015.215c.015.113.038.216.068.314l.113.302a1.83 1.83 0 0 0 .182.314l.215.302.28.265c.097.097.202.185.314.265.397.348.49.46 1.01.726.083.05.166.083.265.132.05.05.05.064.068.098.015.132.05.265.083.397a2.23 2.23 0 0 0 .132.397l.132.302c.015.038.038.068.05.083l.197.363.25.348.28.314.314.28.33.25c.113.083.227.15.363.215.122.07.25.13.382.18a1.78 1.78 0 0 0 .329.113l.28.083c-.05.892-.068 1.74.068 2.033.15.33.877-.68 1.603-1.833-.098 1.142-.166 2.48 0 2.873s1.134-.877 2.033-2.298c11.717-2.7 22.413 5.4 23.536 16.827-.215-1.784-2.41-2.778-3.42-2.532-.49 1.225-1.338 2.797-2.695 3.768.117-1.104.06-2.22-.166-3.307-.37 1.522-1.07 2.943-2.05 4.165-1.57.113-3.137-.642-3.97-1.784-.068-.05-.083-.15-.132-.215l-.132-.348a1.26 1.26 0 0 1-.098-.348c-.015-.12-.015-.227-.015-.363v-.25c.015-.113.05-.227.083-.348l.113-.348c.068-.113.113-.227.197-.348.28-.756.28-1.436-.227-1.814-.1-.065-.204-.12-.314-.166-.068-.015-.15-.05-.215-.068l-.132-.05-.348-.083c-.113-.033-.23-.05-.348-.05a2.69 2.69 0 0 0-.363-.034c-.083 0-.166.015-.25.015-.123-.001-.245.016-.363.05l-.348.064-.348.113-.33.15-.314.166c-3.855 2.513-1.512 8.39 1.073 10.1-1 .18-2.003.397-2.28.612.68.46 1.42.83 2.2 1.14l2.676.756c1.372.302 2.76.397 4.165.314 7.358-.54 13.35-6.12 14.412-13.42l.098.43.15.926.068.446v1.3c0 .083.015.18.015.264s-.015.197-.015.302v.227l-.015.33c0 .064 0 .132-.015.215l-.015.363c-.015.05-.015.098-.015.15l-.05.378c0 .05 0 .098-.015.15l-.064.48v.038l-.098.46-.098.49-.265 1.028-.166.53-.363.96-.197.48-.227.46c-.015.05-.038.083-.05.113-1.108 2.215-2.695 4.158-4.68 5.6-.132.083-.265.18-.397.28-.038.038-.083.05-.113.083l-.363.25.05.098h.015l.695-.098h.015l1.285-.227a2.51 2.51 0 0 0 .363-.083l.227-.05.348-.064.302-.083a31.79 31.79 0 0 0 4.793-1.587c-2.627 3.59-6.15 6.478-10.265 8.38 1.9-.132 3.802-.446 5.67-.975 6.66-1.965 12.265-6.444 15.62-12.48-.68 3.827-2.198 7.456-4.445 10.628 1.6-1.057 3.08-2.286 4.414-3.666 3.7-3.863 6.128-8.765 6.958-14.05a26.23 26.23 0 0 1 .48 7.967c11.932-16.645 1-33.903-3.59-38.446-.015-.038-.038-.05-.038-.083-.038.197-.05.397-.064.593-.05.378-.098.745-.166 1.108s-.18.726-.28 1.134-.25.71-.397 1.058-.314.68-.49 1.01a11.23 11.23 0 0 1-.593.941c-.215.314-.446.612-.68.892a12.35 12.35 0 0 1-.779.828 11.85 11.85 0 0 1-.48.416l-.378.33a9.2 9.2 0 0 1-.926.646 11.44 11.44 0 0 1-.975.563c-.348.166-.695.314-1.043.46-.352.133-.7.25-1.073.348s-.745.18-1.107.25-.756.098-1.123.132c-.265.015-.53.038-.756.038-.378 0-.756-.038-1.123-.068a8.34 8.34 0 0 1-1.126-.166 8.34 8.34 0 0 1-1.107-.28h-.015c.363-.038.726-.068 1.134-.132s.745-.15 1.107-.25.726-.216 1.073-.348.71-.302 1.043-.46c.34-.165.67-.347 1-.544.314-.215.627-.43.926-.66s.578-.48.843-.745c.28-.25.53-.53.78-.81s.48-.593.696-.892c.038-.05.068-.113.098-.166l.48-.756c.183-.327.347-.664.49-1.01s.28-.696.397-1.058.197-.71.28-1.073.135-.735.166-1.107a11.11 11.11 0 0 0 .064-1.123 7.77 7.77 0 0 0-.038-.756c-.038-.378-.083-.745-.132-1.107-.066-.373-.15-.742-.25-1.107-.113-.348-.227-.71-.363-1.058s-.302-.695-.46-1.02c-.17-.336-.36-.662-.567-.975s-.428-.614-.662-.907l-.756-.843c-.14-.142-.283-.28-.43-.412-.74-.576-1.507-1.117-2.298-1.62a4.49 4.49 0 0 0-.329-.166c-.5-.3-1.017-.534-1.57-.695z" stroke="none" fill="#ea2845"></path></symbol></svg>