<svg xmlns="http://www.w3.org/2000/svg" viewBox="0 0 48 48" width="48" height="48"><path fill="none" stroke="#2196f3" stroke-miterlimit="10" strokeWidth="2" d="M24 15A22 9 0 1 0 24 33A22 9 0 1 0 24 15Z"/><path fill="none" stroke="#2196f3" stroke-miterlimit="10" strokeWidth="2" d="M23.999 15.001000000000001A22 9 0 1 0 23.999 33.001000000000005A22 9 0 1 0 23.999 15.001000000000001Z" transform="rotate(-60 24 24.001)"/><path fill="none" stroke="#2196f3" stroke-miterlimit="10" strokeWidth="2" d="M23.999 1.9989999999999988A9 22 0 1 0 23.999 45.998999999999995A9 22 0 1 0 23.999 1.9989999999999988Z" transform="rotate(-30 23.999 24)"/><path fill="#f94515" d="M24 20A4 4 0 1 0 24 28A4 4 0 1 0 24 20Z"/></svg>