<svg version="1.1" class="walker-industries-logo" xmlns="http://www.w3.org/2000/svg" xmlns:xlink="http://www.w3.org/1999/xlink" width="100%" preserveAspectRatio="xMidYMid meet" x="0px" y="0px" viewBox="0 0 747.9 167.3" style="enable-background:new 0 0 747.9 167.3;" xml:space="preserve">
    <style type="text/css">
        .walker-industries-logo--0{fill:#001F60;}
        .walker-industries-logo--1{fill:#F3C300;}
    </style>
    <g>
        <g>
            <path class="walker-industries-logo--0" d="M299.5,82.8h7.2c7.9,0,14.7,5.4,16.6,13l10.7,43.2h0.3l15.5-56.1h18l15.5,56.1h0.3l13.9-56.1H418l-23.8,82.6
                h-19.6L358.9,110h-0.3l-15.7,55.3h-19.6L299.5,82.8z"></path>
            <path class="walker-industries-logo--0" d="M492.9,151.5c0,4.2,0.4,7.4,1.1,9.5c0.8,2.1,1.4,3.5,2,4.4H475c-0.7-1-1.1-2.2-1.5-3.7
                c-0.3-1.5-0.5-2.7-0.5-3.8c-7.8,6.3-16.8,9.5-26.9,9.5c-3.9,0-7.6-0.6-11-1.8c-3.4-1.2-6.4-2.9-8.9-5.1c-2.5-2.2-4.5-5-6-8.2
                c-1.5-3.2-2.2-6.8-2.2-10.9c0-4,0.7-7.5,2.2-10.5c1.5-3,3.4-5.5,5.8-7.5c2.4-2,5.1-3.6,8.1-4.9c3-1.3,6-2.2,9.1-2.9l8.3-1.6
                c1.7-0.3,3.6-0.7,5.6-1.1c2-0.4,4-0.8,6-1.2c2-0.4,3.8-0.9,5.5-1.3c1.7-0.4,3.2-0.9,4.5-1.3v-2.4c0-4-1.5-6.8-4.6-8.2
                c-3-1.5-6.7-2.2-11.1-2.2c-5.9,0-9.9,0.9-12.1,2.8c-2.2,1.8-3.3,5.1-3.3,9.6l-19.9-0.8c0-4.9,1-9,2.9-12.4c2-3.4,4.6-6.1,7.8-8.3
                c3.3-2.2,7-3.8,11.3-4.7s8.7-1.5,13.2-1.5c4.5,0,8.8,0.3,13.1,0.9c4.2,0.6,8,1.9,11.4,3.8c3.4,2,6.1,4.7,8.1,8.2
                c2,3.5,3,8.2,3,14.1V151.5z M473,124c-2.5,1.3-5.7,2.3-9.5,2.9l-10.9,2.3c-3.8,0.8-7,1.9-9.7,3.3c-2.7,1.5-4,4.2-4,8.1
                c0,3.2,1.3,5.7,3.8,7.5c2.5,1.9,5.5,2.8,9.1,2.8c2.3,0,4.7-0.3,7.2-0.9c2.5-0.6,4.8-1.5,6.9-2.7c2.1-1.2,3.8-2.8,5.1-4.7
                c1.4-2,2-4.2,2-6.9V124z"></path>
            <rect x="505" y="49.1" class="walker-industries-logo--0" width="19.9" height="116.2"></rect>
            <polygon class="walker-industries-logo--0" points="537.1,49.1 557,49.1 557,113.8 588.4,82.8 614.1,82.8 582.2,114.9 617.2,165.3 592.9,165.3
                568.3,128.3 557,139.4 557,165.3 537.1,165.3 		"></polygon>
            <path class="walker-industries-logo--0" d="M632.1,128.8c0.1,3,0.8,5.8,2,8.3c1.2,2.5,2.8,4.6,4.8,6.4c2,1.7,4.3,3.1,6.8,4.1c2.5,1,5.1,1.5,7.8,1.5
                c3.9,0,7.3-0.5,10-1.5c2.8-1,5.1-2.1,7-3.4c1.9-1.3,3.4-2.6,4.4-3.9c1-1.3,1.8-2.3,2.4-2.9l16.8,9.8c-1.5,2.4-3.5,4.8-5.8,7.2
                c-2.3,2.4-5.1,4.6-8.4,6.5c-3.3,2-7.1,3.5-11.4,4.7c-4.4,1.2-9.4,1.8-15,1.8c-6.7,0-12.7-1.1-18-3.3c-5.2-2.2-9.6-5.2-13.2-9.1
                c-3.6-3.9-6.3-8.4-8.2-13.7c-1.9-5.3-2.9-11-2.9-17.2c0-6.2,1-11.9,2.9-17.2c1.9-5.3,4.7-9.8,8.2-13.7s8-6.9,13.2-9.1
                c5.2-2.2,11.2-3.3,18-3.3c6.9,0,12.8,1.1,17.8,3.3c5,2.2,9.1,5.4,12.4,9.5c3.3,4.1,5.7,9.2,7.2,15.1c1.5,5.9,2.3,12.6,2.3,20
                H632.1z M672.3,113.4c0-1.1-0.4-2.6-1.1-4.4c-0.7-1.8-1.8-3.6-3.3-5.4c-1.5-1.7-3.5-3.3-5.8-4.6c-2.3-1.3-5.2-2-8.6-2
                c-5.9,0-10.6,1.6-14.3,4.8c-3.6,3.2-6,7-7.1,11.5H672.3z"></path>
            <path class="walker-industries-logo--0" d="M702.2,82.7h19.9v11.4h0.3c2.4-4.8,5.8-8.2,10.1-10.3c4.4-2.1,9.5-3.1,15.4-3.1V101c-3.4,0-6.6,0.4-9.7,1.3
                c-3.1,0.9-5.9,2.3-8.2,4.2c-2.4,1.9-4.3,4.4-5.7,7.5c-1.4,3.1-2.1,6.9-2.1,11.3v40h-1.5c-10.2,0-18.4-8.2-18.4-18.4V82.7z"></path>
        </g>
        <g>
            <path class="walker-industries-logo--1" d="M109.1,165.3L73.4,41.7C66.3,17,43.7,0,18,0H0l35.7,123.7c7.1,24.7,29.7,41.7,55.4,41.7H109.1z"></path>
            <path class="walker-industries-logo--1" d="M255.8,82.7L244,41.7C236.9,17,214.3,0,188.6,0h-18l11.8,41.1c7.1,24.7,29.7,41.7,55.4,41.7H255.8z"></path>
            <path class="walker-industries-logo--1" d="M194.4,165.3L158.7,41.7C151.6,17,129,0,103.3,0h-18L121,123.7c7.1,24.7,29.7,41.7,55.4,41.7H194.4z"></path>
        </g>
    </g>
</svg>